<svg xmlns="http://www.w3.org/2000/svg" xmlns:xlink="http://www.w3.org/1999/xlink" contentStyleType="text/css" data-diagram-type="DESCRIPTION" height="1762px" preserveAspectRatio="none" style="width:1678px;height:1762px;background:#FFFFFF;" version="1.1" viewBox="0 0 1678 1762" width="1678px" zoomAndPan="magnify"><title>Package Structure
Actual Packages in Each Layer (Library)</title><defs/><g><g class="title" data-source-line="4"><text fill="#000000" font-family="Verdana" font-size="22" font-weight="bold" lengthAdjust="spacing" textLength="227.1758" x="720.9121" y="37.1182">Package Structure</text><text fill="#000000" font-family="Verdana" font-size="22" font-weight="bold" lengthAdjust="spacing" textLength="493.625" x="587.6875" y="63.8555">Actual Packages in Each Layer (Library)</text></g><!--cluster API Layer--><g class="cluster" data-entity="API Layer" data-source-line="6" data-uid="ent0002" id="cluster_API Layer"><rect fill="#FFEBCD" height="850.48" rx="2.5" ry="2.5" style="stroke:#000000;stroke-width:1;" width="573" x="442" y="86.4746"/><path d="M529.1982,86.4746 L529.1982,96.4893 L519.1982,106.4893 L442,106.4893" fill="none" style="stroke:#000000;stroke-width:1;"/><text fill="#000000" font-family="Verdana" font-size="14" font-weight="bold" lengthAdjust="spacing" textLength="77.1982" x="445" y="101.5498">API Layer</text></g><!--cluster Infrastructure Layer--><g class="cluster" data-entity="Infrastructure Layer" data-source-line="57" data-uid="ent0015" id="cluster_Infrastructure Layer"><rect fill="#E6F3FF" height="314.79" rx="2.5" ry="2.5" style="stroke:#000000;stroke-width:1;" width="628" x="1039" y="645.8646"/><path d="M1209.7266,645.8646 L1209.7266,655.8793 L1199.7266,665.8793 L1039,665.8793" fill="none" style="stroke:#000000;stroke-width:1;"/><text fill="#000000" font-family="Verdana" font-size="14" font-weight="bold" lengthAdjust="spacing" textLength="160.7266" x="1042" y="660.9398">Infrastructure Layer</text></g><!--cluster Application Layer--><g class="cluster" data-entity="Application Layer" data-source-line="79" data-uid="ent0020" id="cluster_Application Layer"><rect fill="#E8F5E9" height="188.39" rx="2.5" ry="2.5" style="stroke:#000000;stroke-width:1;" width="1540" x="12" y="1009.6546"/><path d="M158.7803,1009.6546 L158.7803,1019.6693 L148.7803,1029.6693 L12,1029.6693" fill="none" style="stroke:#000000;stroke-width:1;"/><text fill="#000000" font-family="Verdana" font-size="14" font-weight="bold" lengthAdjust="spacing" textLength="136.7803" x="15" y="1024.7298">Application Layer</text></g><!--cluster Domain Layer--><g class="cluster" data-entity="Domain Layer" data-source-line="107" data-uid="ent0033" id="cluster_Domain Layer"><rect fill="#FFF9E6" height="125.2" rx="2.5" ry="2.5" style="stroke:#000000;stroke-width:1;" width="1199" x="473" y="1247.0446"/><path d="M591.582,1247.0446 L591.582,1257.0593 L581.582,1267.0593 L473,1267.0593" fill="none" style="stroke:#000000;stroke-width:1;"/><text fill="#000000" font-family="Verdana" font-size="14" font-weight="bold" lengthAdjust="spacing" textLength="108.582" x="476" y="1262.1198">Domain Layer</text></g><!--entity APIFacade--><g class="entity" data-entity="APIFacade" data-source-line="7" data-uid="ent0003" id="entity_APIFacade"><rect fill="#FFFFFF" height="37.0146" rx="2.5" ry="2.5" style="stroke:#000000;stroke-width:1;" width="159.9248" x="503.04" y="211.6646"/><text fill="#000000" font-family="Verdana" font-size="14" lengthAdjust="spacing" textLength="139.9248" x="513.04" y="235.7398">Tzif.API</text></g><!--entity APIDesktop--><g class="entity" data-entity="APIDesktop" data-source-line="8" data-uid="ent0004" id="entity_APIDesktop"><rect fill="#FFFFFF" height="37.0146" rx="2.5" ry="2.5" style="stroke:#000000;stroke-width:1;" width="222.46" x="471.77" y="480.3646"/><text fill="#000000" font-family="Verdana" font-size="14" lengthAdjust="spacing" textLength="202.46" x="481.77" y="504.4398">Tzif.API.Desktop</text></g><!--entity APIOps--><g class="entity" data-entity="APIOps" data-source-line="9" data-uid="ent0005" id="entity_APIOps"><rect fill="#CCFFCC" height="37.0146" rx="2.5" ry="2.5" style="stroke:#000000;stroke-width:1;" width="241.4912" x="458.25" y="794.7546"/><text fill="#000000" font-family="Verdana" font-size="14" lengthAdjust="spacing" textLength="221.4912" x="468.25" y="818.8298">Tzif.API.Operations</text></g><g class="entity" data-entity="GMN6" data-source-line="12" data-uid="ent0007" id="entity_GMN6"><path d="M698.25,122.4746 L698.25,226.1746 L663.2,230.1746 L698.25,234.1746 L698.25,337.8657 A0,0 0 0 0 698.25,337.8657 L939.7549,337.8657 A0,0 0 0 0 939.7549,337.8657 L939.7549,132.4746 L929.7549,122.4746 L698.25,122.4746 A0,0 0 0 0 698.25,122.4746" fill="#FFFFFF" style="stroke:#000000;stroke-width:1;"/><path d="M929.7549,122.4746 L929.7549,132.4746 L939.7549,132.4746 L929.7549,122.4746" fill="#FFFFFF" style="stroke:#000000;stroke-width:1;"/><text fill="#000000" font-family="Verdana" font-size="13" font-weight="bold" lengthAdjust="spacing" textLength="100.0518" x="704.25" y="140.5444">Public Facade</text><text fill="#000000" font-family="Verdana" font-size="13" lengthAdjust="spacing" textLength="176.7568" x="704.25" y="156.3438">- Re-exports Domain types</text><text fill="#000000" font-family="Verdana" font-size="13" lengthAdjust="spacing" textLength="198.2119" x="704.25" y="172.1431">- Re-exports Application types</text><text fill="#000000" font-family="Verdana" font-size="13" lengthAdjust="spacing" textLength="191.3945" x="704.25" y="187.9424">- Delegates Greet to Desktop</text><text fill="#000000" font-family="Verdana" font-size="13" lengthAdjust="spacing" textLength="126.9341" x="704.25" y="203.7417">- SPARK_Mode: Off</text><text fill="#000000" font-family="Verdana" font-size="13" lengthAdjust="spacing" textLength="4.5703" x="704.25" y="219.541">&#160;</text><text fill="#000000" font-family="Verdana" font-size="13" lengthAdjust="spacing" textLength="48.5088" x="704.25" y="235.3403">```ada</text><text fill="#000000" font-family="Verdana" font-size="13" lengthAdjust="spacing" textLength="203.436" x="704.25" y="251.1396">package Tzif.API is</text><text fill="#000000" font-family="Verdana" font-size="13" lengthAdjust="spacing" textLength="179.7339" x="717.9609" y="266.939">subtype Person_Type is ...;</text><text fill="#000000" font-family="Verdana" font-size="13" lengthAdjust="spacing" textLength="206.7939" x="717.9609" y="282.7383">subtype Greet_Command is ...;</text><text fill="#000000" font-family="Verdana" font-size="13" lengthAdjust="spacing" textLength="193.6226" x="717.9609" y="298.5376">function Greet (...) return ...;</text><text fill="#000000" font-family="Verdana" font-size="13" lengthAdjust="spacing" textLength="164.4741" x="704.25" y="314.3369">end Tzif.API;</text><text fill="#000000" font-family="Verdana" font-size="13" lengthAdjust="spacing" textLength="24.7939" x="704.25" y="330.1362">```</text></g><g class="entity" data-entity="GMN9" data-source-line="28" data-uid="ent0010" id="entity_GMN9"><path d="M729.41,414.8746 L729.41,494.8646 L694.56,498.8646 L729.41,502.8646 L729.41,582.8678 A0,0 0 0 0 729.41,582.8678 L996.5848,582.8678 A0,0 0 0 0 996.5848,582.8678 L996.5848,424.8746 L986.5848,414.8746 L729.41,414.8746 A0,0 0 0 0 729.41,414.8746" fill="#FFFFFF" style="stroke:#000000;stroke-width:1;"/><path d="M986.5848,414.8746 L986.5848,424.8746 L996.5848,424.8746 L986.5848,414.8746" fill="#FFFFFF" style="stroke:#000000;stroke-width:1;"/><text fill="#000000" font-family="Verdana" font-size="13" font-weight="bold" lengthAdjust="spacing" textLength="129.1938" x="735.41" y="432.9444">Composition Root</text><text fill="#000000" font-family="Verdana" font-size="13" lengthAdjust="spacing" textLength="190.7471" x="735.41" y="448.7438">- Instantiates API.Operations</text><text fill="#000000" font-family="Verdana" font-size="13" lengthAdjust="spacing" textLength="151.3472" x="735.41" y="464.5431">- Wires Console_Writer</text><text fill="#000000" font-family="Verdana" font-size="13" lengthAdjust="spacing" textLength="126.9341" x="735.41" y="480.3424">- SPARK_Mode: Off</text><text fill="#000000" font-family="Verdana" font-size="13" lengthAdjust="spacing" textLength="4.5703" x="735.41" y="496.1417">&#160;</text><text fill="#000000" font-family="Verdana" font-size="13" lengthAdjust="spacing" textLength="48.5088" x="735.41" y="511.941">```ada</text><text fill="#000000" font-family="Verdana" font-size="13" lengthAdjust="spacing" textLength="189.2236" x="735.41" y="527.7403">package Console_Ops is new</text><text fill="#000000" font-family="Verdana" font-size="13" lengthAdjust="spacing" textLength="97.938" x="744.5506" y="543.5396">API.Operations</text><text fill="#000000" font-family="Verdana" font-size="13" lengthAdjust="spacing" textLength="227.8936" x="753.6913" y="559.339">(Writer =&gt; Console_Writer.Write);</text><text fill="#000000" font-family="Verdana" font-size="13" lengthAdjust="spacing" textLength="24.7939" x="735.41" y="575.1383">```</text></g><g class="entity" data-entity="GMN12" data-source-line="41" data-uid="ent0013" id="entity_GMN12"><path d="M734.7,705.5646 L734.7,809.2546 L700.22,813.2546 L734.7,817.2546 L734.7,920.9557 A0,0 0 0 0 734.7,920.9557 L999.304,920.9557 A0,0 0 0 0 999.304,920.9557 L999.304,715.5646 L989.304,705.5646 L734.7,705.5646 A0,0 0 0 0 734.7,705.5646" fill="#FFFFFF" style="stroke:#000000;stroke-width:1;"/><path d="M989.304,705.5646 L989.304,715.5646 L999.304,715.5646 L989.304,705.5646" fill="#FFFFFF" style="stroke:#000000;stroke-width:1;"/><text fill="#000000" font-family="Verdana" font-size="13" font-weight="bold" lengthAdjust="spacing" textLength="171.958" x="740.7" y="723.6344">SPARK-Safe Operations</text><text fill="#000000" font-family="Verdana" font-size="13" lengthAdjust="spacing" textLength="138.5566" x="740.7" y="739.4338">- Generic over Writer</text><text fill="#000000" font-family="Verdana" font-size="13" lengthAdjust="spacing" textLength="126.02" x="740.7" y="755.2331">- SPARK_Mode: On</text><text fill="#000000" font-family="Verdana" font-size="13" lengthAdjust="spacing" textLength="127.626" x="740.7" y="771.0324">- Depends ONLY on</text><text fill="#000000" font-family="Verdana" font-size="13" lengthAdjust="spacing" textLength="127.6641" x="749.8406" y="786.8317">Application/Domain</text><text fill="#000000" font-family="Verdana" font-size="13" lengthAdjust="spacing" textLength="4.5703" x="740.7" y="802.631">&#160;</text><text fill="#000000" font-family="Verdana" font-size="13" lengthAdjust="spacing" textLength="48.5088" x="740.7" y="818.4303">```ada</text><text fill="#000000" font-family="Verdana" font-size="13" lengthAdjust="spacing" textLength="47.7026" x="740.7" y="834.2296">generic</text><text fill="#000000" font-family="Verdana" font-size="13" lengthAdjust="spacing" textLength="229.8931" x="754.4109" y="850.029">with function Writer (...) return ...;</text><text fill="#000000" font-family="Verdana" font-size="13" lengthAdjust="spacing" textLength="171.4438" x="740.7" y="865.8283">package API.Operations is</text><text fill="#000000" font-family="Verdana" font-size="13" lengthAdjust="spacing" textLength="193.6226" x="754.4109" y="881.6276">function Greet (...) return ...;</text><text fill="#000000" font-family="Verdana" font-size="13" lengthAdjust="spacing" textLength="132.4819" x="740.7" y="897.4269">end API.Operations;</text><text fill="#000000" font-family="Verdana" font-size="13" lengthAdjust="spacing" textLength="24.7939" x="740.7" y="913.2262">```</text></g><!--entity InfraConsole--><g class="entity" data-entity="InfraConsole" data-source-line="58" data-uid="ent0016" id="entity_InfraConsole"><rect fill="#FFFFFF" height="37.0146" rx="2.5" ry="2.5" style="stroke:#000000;stroke-width:1;" width="290.6211" x="1054.69" y="794.7546"/><text fill="#000000" font-family="Verdana" font-size="14" lengthAdjust="spacing" textLength="270.6211" x="1064.69" y="818.8298">Infrastructure.Adapter.Console_Writer</text></g><g class="entity" data-entity="GMN17" data-source-line="60" data-uid="ent0018" id="entity_GMN17"><path d="M1380.64,681.8646 L1380.64,809.2546 L1345.66,813.2546 L1380.64,817.2546 L1380.64,944.6537 A0,0 0 0 0 1380.64,944.6537 L1651.3695,944.6537 A0,0 0 0 0 1651.3695,944.6537 L1651.3695,691.8646 L1641.3695,681.8646 L1380.64,681.8646 A0,0 0 0 0 1380.64,681.8646" fill="#FFFFFF" style="stroke:#000000;stroke-width:1;"/><path d="M1641.3695,681.8646 L1641.3695,691.8646 L1651.3695,691.8646 L1641.3695,681.8646" fill="#FFFFFF" style="stroke:#000000;stroke-width:1;"/><text fill="#000000" font-family="Verdana" font-size="13" font-weight="bold" lengthAdjust="spacing" textLength="174.6177" x="1386.64" y="699.9344">Implements Writer Port</text><text fill="#000000" font-family="Verdana" font-size="13" lengthAdjust="spacing" textLength="153.4927" x="1386.64" y="715.7338">- Ada.Text_IO.Put_Line</text><text fill="#000000" font-family="Verdana" font-size="13" lengthAdjust="spacing" textLength="134.2021" x="1386.64" y="731.5331">- Exception handling</text><text fill="#000000" font-family="Verdana" font-size="13" lengthAdjust="spacing" textLength="126.9341" x="1386.64" y="747.3324">- SPARK_Mode: Off</text><text fill="#000000" font-family="Verdana" font-size="13" lengthAdjust="spacing" textLength="4.5703" x="1386.64" y="763.1317">&#160;</text><text fill="#000000" font-family="Verdana" font-size="13" lengthAdjust="spacing" textLength="48.5088" x="1386.64" y="778.931">```ada</text><text fill="#000000" font-family="Verdana" font-size="13" lengthAdjust="spacing" textLength="218.7783" x="1386.64" y="794.7303">function Write (Message : String)</text><text fill="#000000" font-family="Verdana" font-size="13" lengthAdjust="spacing" textLength="180.2671" x="1395.7806" y="810.5296">return Unit_Result.Result is</text><text fill="#000000" font-family="Verdana" font-size="13" lengthAdjust="spacing" textLength="35.7373" x="1386.64" y="826.329">begin</text><text fill="#000000" font-family="Verdana" font-size="13" lengthAdjust="spacing" textLength="134.4053" x="1400.3509" y="842.1283">Put_Line (Message);</text><text fill="#000000" font-family="Verdana" font-size="13" lengthAdjust="spacing" textLength="236.0186" x="1400.3509" y="857.9276">return Unit_Result.Ok (Unit_Value);</text><text fill="#000000" font-family="Verdana" font-size="13" lengthAdjust="spacing" textLength="62.8608" x="1386.64" y="873.7269">exception</text><text fill="#000000" font-family="Verdana" font-size="13" lengthAdjust="spacing" textLength="106.5581" x="1400.3509" y="889.5262">when others =&gt;</text><text fill="#000000" font-family="Verdana" font-size="13" lengthAdjust="spacing" textLength="194.105" x="1414.0619" y="905.3255">return Unit_Result.Error (...);</text><text fill="#000000" font-family="Verdana" font-size="13" lengthAdjust="spacing" textLength="69.3799" x="1386.64" y="921.1249">end Write;</text><text fill="#000000" font-family="Verdana" font-size="13" lengthAdjust="spacing" textLength="24.7939" x="1386.64" y="936.9242">```</text></g><!--entity AppCommand--><g class="entity" data-entity="AppCommand" data-source-line="80" data-uid="ent0021" id="entity_AppCommand"><rect fill="#FFFFFF" height="37.0146" rx="2.5" ry="2.5" style="stroke:#000000;stroke-width:1;" width="217.8252" x="28.09" y="1095.3446"/><text fill="#000000" font-family="Verdana" font-size="14" lengthAdjust="spacing" textLength="197.8252" x="38.09" y="1119.4198">Application.Command.Greet</text></g><!--entity AppUsecase--><g class="entity" data-entity="AppUsecase" data-source-line="81" data-uid="ent0022" id="entity_AppUsecase"><rect fill="#FFFFFF" height="37.0146" rx="2.5" ry="2.5" style="stroke:#000000;stroke-width:1;" width="203.5449" x="500.23" y="1095.3446"/><text fill="#000000" font-family="Verdana" font-size="14" lengthAdjust="spacing" textLength="183.5449" x="510.23" y="1119.4198">Application.Usecase.Greet</text></g><!--entity AppPort--><g class="entity" data-entity="AppPort" data-source-line="82" data-uid="ent0023" id="entity_AppPort"><rect fill="#FFFFFF" height="37.0146" rx="2.5" ry="2.5" style="stroke:#000000;stroke-width:1;" width="253.3721" x="1059.31" y="1095.3446"/><text fill="#000000" font-family="Verdana" font-size="14" lengthAdjust="spacing" textLength="233.3721" x="1069.31" y="1119.4198">Application.Port.Outbound.Writer</text></g><g class="entity" data-entity="GMN24" data-source-line="85" data-uid="ent0025" id="entity_GMN24"><path d="M281.16,1093.0546 L281.16,1109.8546 L246.24,1113.8546 L281.16,1117.8546 L281.16,1134.6532 A0,0 0 0 0 281.16,1134.6532 L464.8377,1134.6532 A0,0 0 0 0 464.8377,1134.6532 L464.8377,1103.0546 L454.8377,1093.0546 L281.16,1093.0546 A0,0 0 0 0 281.16,1093.0546" fill="#FFFFFF" style="stroke:#000000;stroke-width:1;"/><path d="M454.8377,1093.0546 L454.8377,1103.0546 L464.8377,1103.0546 L454.8377,1093.0546" fill="#FFFFFF" style="stroke:#000000;stroke-width:1;"/><text fill="#000000" font-family="Verdana" font-size="13" font-weight="bold" lengthAdjust="spacing" textLength="108.0244" x="287.16" y="1111.1244">Command DTO</text><text fill="#000000" font-family="Verdana" font-size="13" lengthAdjust="spacing" textLength="162.6777" x="287.16" y="1126.9238">Bounded string for name</text></g><g class="entity" data-entity="GMN27" data-source-line="90" data-uid="ent0028" id="entity_GMN27"><path d="M739.23,1045.6546 L739.23,1109.8546 L704.27,1113.8546 L739.23,1117.8546 L739.23,1182.0491 A0,0 0 0 0 739.23,1182.0491 L1024.7686,1182.0491 A0,0 0 0 0 1024.7686,1182.0491 L1024.7686,1055.6546 L1014.7686,1045.6546 L739.23,1045.6546 A0,0 0 0 0 739.23,1045.6546" fill="#FFFFFF" style="stroke:#000000;stroke-width:1;"/><path d="M1014.7686,1045.6546 L1014.7686,1055.6546 L1024.7686,1055.6546 L1014.7686,1045.6546" fill="#FFFFFF" style="stroke:#000000;stroke-width:1;"/><text fill="#000000" font-family="Verdana" font-size="13" font-weight="bold" lengthAdjust="spacing" textLength="125.8486" x="745.23" y="1063.7244">Generic Use Case</text><text fill="#000000" font-family="Verdana" font-size="13" lengthAdjust="spacing" textLength="48.5088" x="745.23" y="1079.5238">```ada</text><text fill="#000000" font-family="Verdana" font-size="13" lengthAdjust="spacing" textLength="47.7026" x="745.23" y="1095.3231">generic</text><text fill="#000000" font-family="Verdana" font-size="13" lengthAdjust="spacing" textLength="229.8931" x="758.9409" y="1111.1224">with function Writer (...) return ...;</text><text fill="#000000" font-family="Verdana" font-size="13" lengthAdjust="spacing" textLength="243.9404" x="745.23" y="1126.9217">package Application.Usecase.Greet is</text><text fill="#000000" font-family="Verdana" font-size="13" lengthAdjust="spacing" textLength="250.8276" x="758.9409" y="1142.721">function Execute (Cmd) return Result;</text><text fill="#000000" font-family="Verdana" font-size="13" lengthAdjust="spacing" textLength="29.9736" x="745.23" y="1158.5203">end;</text><text fill="#000000" font-family="Verdana" font-size="13" lengthAdjust="spacing" textLength="24.7939" x="745.23" y="1174.3196">```</text></g><g class="entity" data-entity="GMN30" data-source-line="101" data-uid="ent0031" id="entity_GMN30"><path d="M1347.8,1085.1546 L1347.8,1109.8546 L1313,1113.8546 L1347.8,1117.8546 L1347.8,1142.5526 A0,0 0 0 0 1347.8,1142.5526 L1536.2004,1142.5526 A0,0 0 0 0 1536.2004,1142.5526 L1536.2004,1095.1546 L1526.2004,1085.1546 L1347.8,1085.1546 A0,0 0 0 0 1347.8,1085.1546" fill="#FFFFFF" style="stroke:#000000;stroke-width:1;"/><path d="M1526.2004,1085.1546 L1526.2004,1095.1546 L1536.2004,1095.1546 L1526.2004,1085.1546" fill="#FFFFFF" style="stroke:#000000;stroke-width:1;"/><text fill="#000000" font-family="Verdana" font-size="13" font-weight="bold" lengthAdjust="spacing" textLength="161.8462" x="1353.8" y="1103.2244">Output Port Definition</text><text fill="#000000" font-family="Verdana" font-size="13" lengthAdjust="spacing" textLength="144.2378" x="1353.8" y="1119.0238">- Unit_Result package</text><text fill="#000000" font-family="Verdana" font-size="13" lengthAdjust="spacing" textLength="167.4004" x="1353.8" y="1134.8231">- Generic_Writer package</text></g><!--entity DomainError--><g class="entity" data-entity="DomainError" data-source-line="108" data-uid="ent0034" id="entity_DomainError"><rect fill="#FFFFFF" height="37.0146" rx="2.5" ry="2.5" style="stroke:#000000;stroke-width:1;" width="114.377" x="1317.81" y="1301.1346"/><text fill="#000000" font-family="Verdana" font-size="14" lengthAdjust="spacing" textLength="94.377" x="1327.81" y="1325.2098">Domain.Error</text></g><!--entity DomainResult--><g class="entity" data-entity="DomainResult" data-source-line="109" data-uid="ent0035" id="entity_DomainResult"><rect fill="#FFFFFF" height="37.0146" rx="2.5" ry="2.5" style="stroke:#000000;stroke-width:1;" width="163.0557" x="749.47" y="1301.1346"/><text fill="#000000" font-family="Verdana" font-size="14" lengthAdjust="spacing" textLength="143.0557" x="759.47" y="1325.2098">Domain.Error.Result</text></g><!--entity DomainPerson--><g class="entity" data-entity="DomainPerson" data-source-line="110" data-uid="ent0036" id="entity_DomainPerson"><rect fill="#FFFFFF" height="37.0146" rx="2.5" ry="2.5" style="stroke:#000000;stroke-width:1;" width="225.2354" x="489.38" y="1301.1346"/><text fill="#000000" font-family="Verdana" font-size="14" lengthAdjust="spacing" textLength="205.2354" x="499.38" y="1325.2098">Domain.Value_Object.Person</text></g><!--entity DomainUnit--><g class="entity" data-entity="DomainUnit" data-source-line="111" data-uid="ent0037" id="entity_DomainUnit"><rect fill="#FFFFFF" height="37.0146" rx="2.5" ry="2.5" style="stroke:#000000;stroke-width:1;" width="107.5684" x="1175.22" y="1301.1346"/><text fill="#000000" font-family="Verdana" font-size="14" lengthAdjust="spacing" textLength="87.5684" x="1185.22" y="1325.2098">Domain.Unit</text></g><g class="entity" data-entity="GMN38" data-source-line="114" data-uid="ent0039" id="entity_GMN38"><path d="M1467.64,1283.0446 L1467.64,1315.6446 L1432.34,1319.6446 L1467.64,1323.6446 L1467.64,1356.2419 A0,0 0 0 0 1467.64,1356.2419 L1656.3514,1356.2419 A0,0 0 0 0 1656.3514,1356.2419 L1656.3514,1293.0446 L1646.3514,1283.0446 L1467.64,1283.0446 A0,0 0 0 0 1467.64,1283.0446" fill="#FFFFFF" style="stroke:#000000;stroke-width:1;"/><path d="M1646.3514,1283.0446 L1646.3514,1293.0446 L1656.3514,1293.0446 L1646.3514,1283.0446" fill="#FFFFFF" style="stroke:#000000;stroke-width:1;"/><text fill="#000000" font-family="Verdana" font-size="13" font-weight="bold" lengthAdjust="spacing" textLength="84.3921" x="1473.64" y="1301.1144">Error Types</text><text fill="#000000" font-family="Verdana" font-size="13" lengthAdjust="spacing" textLength="167.7114" x="1473.64" y="1316.9138">- Error_Kind enumeration</text><text fill="#000000" font-family="Verdana" font-size="13" lengthAdjust="spacing" textLength="129.2129" x="1473.64" y="1332.7131">- Error_Type record</text><text fill="#000000" font-family="Verdana" font-size="13" lengthAdjust="spacing" textLength="166.6768" x="1473.64" y="1348.5124">- Bounded error message</text></g><g class="entity" data-entity="GMN41" data-source-line="121" data-uid="ent0042" id="entity_GMN41"><path d="M947.83,1283.0446 L947.83,1315.6446 L912.96,1319.6446 L947.83,1323.6446 L947.83,1356.2419 A0,0 0 0 0 947.83,1356.2419 L1140.1786,1356.2419 A0,0 0 0 0 1140.1786,1356.2419 L1140.1786,1293.0446 L1130.1786,1283.0446 L947.83,1283.0446 A0,0 0 0 0 947.83,1283.0446" fill="#FFFFFF" style="stroke:#000000;stroke-width:1;"/><path d="M1130.1786,1283.0446 L1130.1786,1293.0446 L1140.1786,1293.0446 L1130.1786,1283.0446" fill="#FFFFFF" style="stroke:#000000;stroke-width:1;"/><text fill="#000000" font-family="Verdana" font-size="13" font-weight="bold" lengthAdjust="spacing" textLength="158.9326" x="953.83" y="1301.1144">Generic Result Monad</text><text fill="#000000" font-family="Verdana" font-size="13" lengthAdjust="spacing" textLength="171.3486" x="953.83" y="1316.9138">- Result[T] : Ok(T) | Error</text><text fill="#000000" font-family="Verdana" font-size="13" lengthAdjust="spacing" textLength="111.4712" x="953.83" y="1332.7131">- Is_Ok, Is_Error</text><text fill="#000000" font-family="Verdana" font-size="13" lengthAdjust="spacing" textLength="123.1826" x="953.83" y="1348.5124">- Value, Error_Info</text></g><!--link APIFacade to APIDesktop--><g class="link" data-entity-1="APIFacade" data-entity-2="APIDesktop" data-source-line="129" data-uid="lnk44" id="link_APIFacade_APIDesktop"><path d="M583,249.0846 C583,297.6746 583,425.5446 583,474.0346" fill="none" id="APIFacade-to-APIDesktop" style="stroke:#000000;stroke-width:1;"/><polygon fill="#000000" points="583,480.0346,587,471.0346,583,475.0346,579,471.0346,583,480.0346" style="stroke:#000000;stroke-width:1;"/><text fill="#000000" font-family="Verdana" font-size="13" lengthAdjust="spacing" textLength="62.7021" x="584" y="381.9444">delegates</text></g><!--link APIDesktop to APIOps--><g class="link" data-entity-1="APIDesktop" data-entity-2="APIOps" data-source-line="130" data-uid="lnk45" id="link_APIDesktop_APIOps"><path d="M582.77,517.5546 C582.07,572.4146 580.0062,733.2551 579.3062,788.3751" fill="none" id="APIDesktop-to-APIOps" style="stroke:#000000;stroke-width:1;"/><polygon fill="#000000" points="579.23,794.3746,583.344,785.4261,579.2935,789.375,575.3446,785.3245,579.23,794.3746" style="stroke:#000000;stroke-width:1;"/><text fill="#000000" font-family="Verdana" font-size="13" lengthAdjust="spacing" textLength="75.8608" x="582.48" y="626.9344">instantiates</text></g><!--link APIDesktop to InfraConsole--><g class="link" data-entity-1="APIDesktop" data-entity-2="InfraConsole" data-source-line="131" data-uid="lnk46" id="link_APIDesktop_InfraConsole"><path d="M604.82,517.7646 C629.35,536.9246 671.12,566.7446 712,582.8646 C839.32,633.0746 892.83,576.1546 1015,637.8646 C1092.22,676.8646 1156.0133,753.5947 1183.3733,789.6547" fill="none" id="APIDesktop-to-InfraConsole" style="stroke:#000000;stroke-width:1;"/><polygon fill="#000000" points="1187,794.4346,1184.7466,784.847,1183.9778,790.4514,1178.3734,789.6826,1187,794.4346" style="stroke:#000000;stroke-width:1;"/><text fill="#000000" font-family="Verdana" font-size="13" lengthAdjust="spacing" textLength="34.271" x="994.72" y="626.9344">wires</text></g><!--link APIOps to AppUsecase--><g class="link" data-entity-1="APIOps" data-entity-2="AppUsecase" data-source-line="133" data-uid="lnk47" id="link_APIOps_AppUsecase"><path d="M580.37,832.0446 C584.46,885.1546 596.0993,1036.1923 600.1793,1089.1723" fill="none" id="APIOps-to-AppUsecase" style="stroke:#000000;stroke-width:1;"/><polygon fill="#000000" points="600.64,1095.1546,603.9371,1085.874,600.2561,1090.1694,595.9608,1086.4883,600.64,1095.1546" style="stroke:#000000;stroke-width:1;"/><text fill="#000000" font-family="Verdana" font-size="13" lengthAdjust="spacing" textLength="29.5166" x="593.56" y="990.7244">uses</text></g><!--link APIOps to AppCommand--><g class="link" data-entity-1="APIOps" data-entity-2="AppCommand" data-source-line="134" data-uid="lnk48" id="link_APIOps_AppCommand"><path d="M544.62,832.0246 C485.31,863.2546 360.81,931.3746 264,1001.6546 C222.73,1031.6046 183.2143,1068.0553 159.3643,1090.9953" fill="none" id="APIOps-to-AppCommand" style="stroke:#000000;stroke-width:1;"/><polygon fill="#000000" points="155.04,1095.1546,164.2994,1091.7985,158.6436,1091.6885,158.7536,1086.0327,155.04,1095.1546" style="stroke:#000000;stroke-width:1;"/><text fill="#000000" font-family="Verdana" font-size="13" lengthAdjust="spacing" textLength="29.5166" x="297.5" y="990.7244">uses</text></g><!--link InfraConsole to AppPort--><g class="link" data-entity-1="InfraConsole" data-entity-2="AppPort" data-source-line="136" data-uid="lnk49" id="link_InfraConsole_AppPort"><path d="M1199.17,832.0446 C1196.68,885.1546 1189.5906,1036.1812 1187.1106,1089.1612" fill="none" id="InfraConsole-to-AppPort" style="stroke:#000000;stroke-width:1;"/><polygon fill="#000000" points="1186.83,1095.1546,1191.2465,1086.3515,1187.0638,1090.1601,1183.2552,1085.9774,1186.83,1095.1546" style="stroke:#000000;stroke-width:1;"/><text fill="#000000" font-family="Verdana" font-size="13" lengthAdjust="spacing" textLength="76.1338" x="1193.16" y="990.7244">implements</text></g><!--link InfraConsole to DomainError--><g class="link" data-entity-1="InfraConsole" data-entity-2="DomainError" data-source-line="137" data-uid="lnk50" id="link_InfraConsole_DomainError"><path d="M1212.93,832.0846 C1237.88,865.0046 1296.13,935.0546 1363,968.6546 C1439.19,1006.9346 1497.13,936.3746 1552,1001.6546 C1610.45,1071.1946 1605.44,1132.5846 1552,1206.0446 C1523.97,1244.5746 1490.27,1213.5746 1450,1239.0446 C1424.17,1255.3846 1404.763,1277.8569 1391.253,1295.8469" fill="none" id="InfraConsole-to-DomainError" style="stroke:#000000;stroke-width:1;"/><polygon fill="#000000" points="1387.65,1300.6446,1396.253,1295.85,1390.6525,1296.6465,1389.856,1291.046,1387.65,1300.6446" style="stroke:#000000;stroke-width:1;"/><text fill="#000000" font-family="Verdana" font-size="13" lengthAdjust="spacing" textLength="29.5166" x="1594.98" y="1119.4244">uses</text></g><!--link AppCommand to DomainPerson--><g class="link" data-entity-1="AppCommand" data-entity-2="DomainPerson" data-source-line="139" data-uid="lnk51" id="link_AppCommand_DomainPerson"><path d="M157.74,1132.7746 C181.88,1152.9046 223.63,1185.4346 264,1206.0446 C350.07,1250.0046 451.187,1280.7197 521.437,1299.1797" fill="none" id="AppCommand-to-DomainPerson" style="stroke:#000000;stroke-width:1;"/><polygon fill="#000000" points="527.24,1300.7046,519.5521,1294.5486,522.4042,1299.4339,517.5189,1302.2859,527.24,1300.7046" style="stroke:#000000;stroke-width:1;"/><text fill="#000000" font-family="Verdana" font-size="13" lengthAdjust="spacing" textLength="58.1826" x="317.75" y="1228.1144">validates</text></g><!--link AppUsecase to DomainPerson--><g class="link" data-entity-1="AppUsecase" data-entity-2="DomainPerson" data-source-line="140" data-uid="lnk52" id="link_AppUsecase_DomainPerson"><path d="M602,1132.5746 C602,1171.1246 602,1256.1746 602,1294.8146" fill="none" id="AppUsecase-to-DomainPerson" style="stroke:#000000;stroke-width:1;"/><polygon fill="#000000" points="602,1300.8146,606,1291.8146,602,1295.8146,598,1291.8146,602,1300.8146" style="stroke:#000000;stroke-width:1;"/><text fill="#000000" font-family="Verdana" font-size="13" lengthAdjust="spacing" textLength="47.5122" x="603" y="1228.1144">creates</text></g><!--link AppPort to DomainResult--><g class="link" data-entity-1="AppPort" data-entity-2="DomainResult" data-source-line="141" data-uid="lnk53" id="link_AppPort_DomainResult"><path d="M1162.21,1132.8546 C1134.58,1153.0546 1087.01,1185.6446 1042,1206.0446 C994.73,1227.4746 975.98,1214.9946 930,1239.0446 C898.54,1255.5046 871.8197,1278.5908 853.1097,1296.5408" fill="none" id="AppPort-to-DomainResult" style="stroke:#000000;stroke-width:1;"/><polygon fill="#000000" points="848.78,1300.6946,858.0437,1297.3504,852.3881,1297.2331,852.5053,1291.5775,848.78,1300.6946" style="stroke:#000000;stroke-width:1;"/><text fill="#000000" font-family="Verdana" font-size="13" lengthAdjust="spacing" textLength="29.5166" x="1019.92" y="1228.1144">uses</text></g><!--link AppPort to DomainUnit--><g class="link" data-entity-1="AppPort" data-entity-2="DomainUnit" data-source-line="142" data-uid="lnk54" id="link_AppPort_DomainUnit"><path d="M1189.74,1132.5746 C1197.87,1171.1246 1215.8517,1256.3038 1224.0017,1294.9438" fill="none" id="AppPort-to-DomainUnit" style="stroke:#000000;stroke-width:1;"/><polygon fill="#000000" points="1225.24,1300.8146,1227.2965,1291.1828,1224.2081,1295.9223,1219.4687,1292.8339,1225.24,1300.8146" style="stroke:#000000;stroke-width:1;"/><text fill="#000000" font-family="Verdana" font-size="13" lengthAdjust="spacing" textLength="29.5166" x="1211.07" y="1228.1144">uses</text></g><g class="legend" data-source-line="144"><rect fill="none" height="367.3076" rx="7.5" ry="7.5" style="stroke:#000000;stroke-width:1;" width="514" x="577.5" y="1382.2446"/><text fill="#000000" font-family="Verdana" font-size="14" font-weight="bold" lengthAdjust="spacing" textLength="224.6494" x="582.5" y="1401.3198">Package Naming Convention</text><text fill="#000000" font-family="Verdana" font-size="14" lengthAdjust="spacing" textLength="504" x="582.5" y="1418.3345">&#9552;&#9552;&#9552;&#9552;&#9552;&#9552;&#9552;&#9552;&#9552;&#9552;&#9552;&#9552;&#9552;&#9552;&#9552;&#9552;&#9552;&#9552;&#9552;&#9552;&#9552;&#9552;&#9552;&#9552;&#9552;&#9552;&#9552;&#9552;&#9552;&#9552;&#9552;&#9552;&#9552;&#9552;&#9552;&#9552;</text><text fill="#000000" font-family="Verdana" font-size="14" lengthAdjust="spacing" textLength="253.0049" x="582.5" y="1435.3491">All packages use hierarchical paths:</text><text fill="#000000" font-family="Verdana" font-size="14" lengthAdjust="spacing" textLength="234.9648" x="582.5" y="1452.3638">&#8226; Parent.Child.Grandchild pattern</text><text fill="#000000" font-family="Verdana" font-size="14" lengthAdjust="spacing" textLength="187.4072" x="582.5" y="1469.3784">&#8226; Underscore_Pascal_Case</text><text fill="#000000" font-family="Verdana" font-size="14" lengthAdjust="spacing" textLength="4.9219" x="582.5" y="1486.393">&#160;</text><text fill="#000000" font-family="Verdana" font-size="14" font-weight="bold" lengthAdjust="spacing" textLength="72.5977" x="582.5" y="1503.4077">Example:</text><text fill="#000000" font-family="Verdana" font-size="14" lengthAdjust="spacing" textLength="286.9727" x="582.5" y="1520.4223">&#8226; Package: Domain.Value_Object.Person</text><text fill="#000000" font-family="Verdana" font-size="14" lengthAdjust="spacing" textLength="311.8076" x="582.5" y="1537.437">&#8226; File: domain-value_object-person.ads/adb</text><text fill="#000000" font-family="Verdana" font-size="14" lengthAdjust="spacing" textLength="105.2188" x="582.5" y="1554.4516">&#8226; Type: Person</text><text fill="#000000" font-family="Verdana" font-size="14" lengthAdjust="spacing" textLength="4.9219" x="582.5" y="1571.4663">&#160;</text><text fill="#000000" font-family="Verdana" font-size="14" font-weight="bold" lengthAdjust="spacing" textLength="214.4092" x="582.5" y="1588.4809">Three-Package API Pattern</text><text fill="#000000" font-family="Verdana" font-size="14" lengthAdjust="spacing" textLength="504" x="582.5" y="1605.4956">&#9552;&#9552;&#9552;&#9552;&#9552;&#9552;&#9552;&#9552;&#9552;&#9552;&#9552;&#9552;&#9552;&#9552;&#9552;&#9552;&#9552;&#9552;&#9552;&#9552;&#9552;&#9552;&#9552;&#9552;&#9552;&#9552;&#9552;&#9552;&#9552;&#9552;&#9552;&#9552;&#9552;&#9552;&#9552;&#9552;</text><text fill="#000000" font-family="Verdana" font-size="14" lengthAdjust="spacing" textLength="285.5781" x="582.5" y="1622.5102">&#8226; API.Operations - SPARK-safe (generic)</text><text fill="#000000" font-family="Verdana" font-size="14" lengthAdjust="spacing" textLength="327.0381" x="582.5" y="1639.5249">&#8226; API.Desktop - Composition root (wires infra)</text><text fill="#000000" font-family="Verdana" font-size="14" lengthAdjust="spacing" textLength="313.6328" x="582.5" y="1656.5395">&#8226; API - Thin facade (re-exports + delegates)</text><text fill="#000000" font-family="Verdana" font-size="14" lengthAdjust="spacing" textLength="4.9219" x="582.5" y="1673.5542">&#160;</text><text fill="#000000" font-family="Verdana" font-size="14" font-weight="bold" lengthAdjust="spacing" textLength="133.041" x="582.5" y="1690.5688">SPARK Boundary</text><text fill="#000000" font-family="Verdana" font-size="14" lengthAdjust="spacing" textLength="504" x="582.5" y="1707.5835">&#9552;&#9552;&#9552;&#9552;&#9552;&#9552;&#9552;&#9552;&#9552;&#9552;&#9552;&#9552;&#9552;&#9552;&#9552;&#9552;&#9552;&#9552;&#9552;&#9552;&#9552;&#9552;&#9552;&#9552;&#9552;&#9552;&#9552;&#9552;&#9552;&#9552;&#9552;&#9552;&#9552;&#9552;&#9552;&#9552;</text><text fill="#000000" font-family="Verdana" font-size="14" lengthAdjust="spacing" textLength="445.6855" x="582.5" y="1724.5981">&#128994; SPARK_Mode(On): API.Operations, Application.*, Domain.*</text><text fill="#000000" font-family="Verdana" font-size="14" lengthAdjust="spacing" textLength="404.1094" x="582.5" y="1741.6128">&#128308; SPARK_Mode(Off): API, API.Desktop, Infrastructure.*</text></g><!--SRC=[nLVTRjis5BxNKt3fnMpFLY-65QkB5N0TkmkQr4RYh1YsGQKbskOiaG99vGVRW3t2BhRh0ds6FT6UO8-mmnz9b28t6J2iGG39v7Tu3W-_y_7e4xKZ6K5vYYaBv9wo70kSePXdEMU4gGjrcn8aIAmmswOa21HLCB34yHvl2RfGeeXL8SZtR09Fd9Op4b66PZZUeLDyImJgdTArmEAs7mGRS43GqMHvOkUEqAFvVFPYUen-2b3j6HrzVRiMD8d0CfeaE0I38uGbWkSSnpWXzw73OoBtYkUbbVjvhzaY9m8hofaiBHUvH8-cq_byEWt0d745EQ7RdK9yquW7eS5WMQnJ6YCxDXYOqH4w9oDoatEX93hc6MGRgTkSoBkpapm7S-E_0JacATbY1PbzAGXHI75KRqW3BfQJyrVH6K_862qscy0Clttx5YVOlERkpExk657h1FvaiTPEqP88oLcqqkzKeZ0CdxKX9eneohCCiwGDsXGiDbkmmVPWhWyq0ggm6aV0xcuqpyh00ulGsUxCkh_zmM2gprHIu_ISSrLb_eH98A-Y9dVDytM8DrJ0r1G6U4gYDu8g8lvbKajZpHH81IFNBXCT3lLVptf1Nprl-GtDe__W9813bm0JwkW2RmYg7LPPU4aO4K1BVWLU3s-HLMpBmQr4YzUdtoBEoitKt7niMNmd8LlhfzpeDLMxcWnkqzriA5FPp9Z7pGTpghb2Pof_gNJeXC6BB7MiagJPa_ddytbRafhW41YRwpDh7g5H3ODqutVEhJMfJ-yaorDGOWOAuBAq13ceZa_NnehSgEXa4IuB1VN2Y9kQtSGaDtdPGI6cb6qVoDtciQ3U6P5I7y1OopeiqtU9Toc-P5H5vqGMgGhjepoRDTdIaYAeZAvQhr-9GiT2YptgcT_VuBGeeQJSKSMY7M68mrKb95HCLKITAyw4u8vYDIFC3kyXWY-y5Gk-d7ynUzfcWOSCdVw5XfFsliXpDtZOwbAI64lIj7A3Xwqq8y95eTQy08yUsG2avpe4me_5gQIHw-FLmd7hXLwC94YQCqSRI1w3V7nOT_nWzRAbki0eciAmM_k_rOL3-UkIYDaDYGjDwccML4jQXbIiUA36kjpQZKBsyqAPsWIDt51cBfogJ3qYbd4tzTT9X3VPmKJN8DJTqVpfx4cRX1PawMv8O0VCxyD8LxcUWHtej30r6ItMFqBx5zgEm3Eq0vs6EWqUKl-yczXcl3gvjdHrpr7VMsOiUaKXIuGLcHFrngHfKg15vI9nuoMdYLamiphqmLDkvSBdj3lECyvmuhLpUl2xrG-WbejzRzL7FwDwAz1qo6Yn7-g7FseIEdHXmoN0M-V_gRjt2OifT2Iz699An4WIiZTwNBMQQ9JmQpPwxhL144XIjeY1D-mXTNCoXiQyxeUwWFxb1F1htHm5WJElLgiK0225j2kr0ANME43GMDZ3cMA2kAeRi1lfyQLQqlFIX5bo0kuAfpInMwr3Fe2D1IcH9gOcpF6Wt6udHZEz2WuEGn_kcYl5iy1y6ZWfUuqphRMmmolORoaWV_tns__s3-ucQLhAaDGHens5wXBn3aHMpwYT7EkeVdqF7tK2uWodEvhgcmxI7UjN3G9-CeUw1E8A2ML8eYMMi4YahuB0x7nsW_NnZkr6pPB6ynWTrXg7d5EmGuc1ZQuCZ1lOA3Um42VoCKxM3gxLOEo-NwplrGvkYT6oRY_1kOdxOsHTXzZgS5sdDfAwTU-vYxBlOQiAHVv7Ze2F7DGpvGar3GNZcG1qjOChP6FLeYVgxylFQfdes_mOxrOpuGlzOoJbxtVltdljQc_1-kDMbeQD-tymB7apCEQ__zamtsoi_T1Ftn2rklT10ELfYpJu1m00]--></g></svg>