<svg xmlns="http://www.w3.org/2000/svg" xmlns:xlink="http://www.w3.org/1999/xlink" contentStyleType="text/css" data-diagram-type="CLASS" height="2111px" preserveAspectRatio="none" style="width:1296px;height:2111px;background:#FFFFFF;" version="1.1" viewBox="0 0 1296 2111" width="1296px" zoomAndPan="magnify"><title>Static Dispatch via Generics
Dependency Injection in Ada (Library)</title><defs/><g><g class="title" data-source-line="4"><text fill="#000000" font-family="Verdana" font-size="22" font-weight="bold" lengthAdjust="spacing" textLength="344.6416" x="471.1792" y="37.1182">Static Dispatch via Generics</text><text fill="#000000" font-family="Verdana" font-size="22" font-weight="bold" lengthAdjust="spacing" textLength="476.0293" x="405.4854" y="63.8555">Dependency Injection in Ada (Library)</text></g><!--cluster Infrastructure Layer--><g class="cluster" data-entity="Infrastructure Layer" data-source-line="6" data-uid="ent0002" id="cluster_Infrastructure Layer"><path d="M1007.5,846.0046 L1169.2266,846.0046 A3.75,3.75 0 0 1 1171.7266,848.5046 L1178.7266,869.0193 L1286.5,869.0193 A2.5,2.5 0 0 1 1289,871.5193 L1289,1004.1446 A2.5,2.5 0 0 1 1286.5,1006.6446 L1007.5,1006.6446 A2.5,2.5 0 0 1 1005,1004.1446 L1005,848.5046 A2.5,2.5 0 0 1 1007.5,846.0046" fill="#E6F3FF" style="stroke:#000000;stroke-width:1;"/><line style="stroke:#000000;stroke-width:1;" x1="1005" x2="1178.7266" y1="869.0193" y2="869.0193"/><text fill="#000000" font-family="Verdana" font-size="14" font-weight="bold" lengthAdjust="spacing" textLength="160.7266" x="1009" y="862.0798">Infrastructure Layer</text></g><!--cluster Application Layer--><g class="cluster" data-entity="Application Layer" data-source-line="15" data-uid="ent0004" id="cluster_Application Layer"><path d="M417.5,85.4746 L555.2803,85.4746 A3.75,3.75 0 0 1 557.7803,87.9746 L564.7803,108.4893 L696.5,108.4893 A2.5,2.5 0 0 1 699,110.9893 L699,611.4746 A2.5,2.5 0 0 1 696.5,613.9746 L417.5,613.9746 A2.5,2.5 0 0 1 415,611.4746 L415,87.9746 A2.5,2.5 0 0 1 417.5,85.4746" fill="#E8F5E9" style="stroke:#000000;stroke-width:1;"/><line style="stroke:#000000;stroke-width:1;" x1="415" x2="564.7803" y1="108.4893" y2="108.4893"/><text fill="#000000" font-family="Verdana" font-size="14" font-weight="bold" lengthAdjust="spacing" textLength="136.7803" x="419" y="101.5498">Application Layer</text></g><!--cluster API Layer--><g class="cluster" data-entity="API Layer" data-source-line="35" data-uid="ent0007" id="cluster_API Layer"><path d="M109.5,102.4946 L187.6982,102.4946 A3.75,3.75 0 0 1 190.1982,104.9946 L197.1982,125.5093 L388.5,125.5093 A2.5,2.5 0 0 1 391,128.0093 L391,1029.6746 A2.5,2.5 0 0 1 388.5,1032.1746 L109.5,1032.1746 A2.5,2.5 0 0 1 107,1029.6746 L107,104.9946 A2.5,2.5 0 0 1 109.5,102.4946" fill="#FFEBCD" style="stroke:#000000;stroke-width:1;"/><line style="stroke:#000000;stroke-width:1;" x1="107" x2="197.1982" y1="125.5093" y2="125.5093"/><text fill="#000000" font-family="Verdana" font-size="14" font-weight="bold" lengthAdjust="spacing" textLength="77.1982" x="111" y="118.5698">API Layer</text></g><!--class CW--><g class="entity" data-entity="CW" data-source-line="7" data-uid="ent0003" id="entity_CW"><rect fill="#FFFFFF" height="108.6426" rx="2.5" ry="2.5" style="stroke:#000000;stroke-width:1;" width="252.9014" x="1020.55" y="882.0046"/><ellipse cx="1089.5031" cy="902.8039" fill="#FFFFFF" rx="9" ry="9" style="stroke:#000000;stroke-width:1;"/><path d="M1091.9763,908.947 Q1091.3952,909.2458 1090.7561,909.3952 Q1090.1169,909.5446 1089.4113,909.5446 Q1086.9045,909.5446 1085.5847,907.8928 Q1084.2648,906.2409 1084.2648,903.1198 Q1084.2648,899.9904 1085.5847,898.3386 Q1086.9045,896.6867 1089.4113,896.6867 Q1090.1169,896.6867 1090.7644,896.8362 Q1091.4118,896.9856 1091.9763,897.2844 L1091.9763,900.0071 Q1091.3454,899.426 1090.7519,899.1562 Q1090.1584,898.8864 1089.5275,898.8864 Q1088.1828,898.8864 1087.498,899.9531 Q1086.8132,901.0197 1086.8132,903.1198 Q1086.8132,905.2116 1087.498,906.2783 Q1088.1828,907.3449 1089.5275,907.3449 Q1090.1584,907.3449 1090.7519,907.0752 Q1091.3454,906.8054 1091.9763,906.2243 Z " fill="#000000"/><text fill="#000000" font-family="Verdana" font-size="12" font-style="italic" lengthAdjust="spacing" textLength="65.2617" x="1128.1198" y="899.0691">&#171;package&#187;</text><text fill="#000000" font-family="Verdana" font-size="14" lengthAdjust="spacing" textLength="107.4951" x="1107.0031" y="915.6638">Console_Writer</text><line style="stroke:#000000;stroke-width:1;" x1="1021.55" x2="1272.4514" y1="923.6032" y2="923.6032"/><ellipse cx="1031.55" cy="937.6106" fill="#FFFFFF" rx="3" ry="3" style="stroke:#000000;stroke-width:1;"/><text fill="#000000" font-family="Verdana" font-size="14" lengthAdjust="spacing" textLength="228.9014" x="1038.55" y="941.6784">Write(Message : String) : Result</text><line style="stroke:#000000;stroke-width:1;" x1="1021.55" x2="1272.4514" y1="948.6179" y2="948.6179"/><text fill="#000000" font-family="Verdana" font-size="14" lengthAdjust="spacing" textLength="177.3379" x="1026.55" y="966.6931">Concrete implementation</text><text fill="#000000" font-family="Verdana" font-size="14" lengthAdjust="spacing" textLength="97.9453" x="1026.55" y="983.7077">of output port</text></g><!--class Port--><g class="entity" data-entity="Port" data-source-line="16" data-uid="ent0005" id="entity_Port"><rect fill="#FFFFFF" height="142.6719" rx="2.5" ry="2.5" style="stroke:#000000;stroke-width:1;" width="233.4639" x="444.27" y="121.4746"/><ellipse cx="502.5039" cy="142.2739" fill="#FFFFFF" rx="9" ry="9" style="stroke:#000000;stroke-width:1;"/><path d="M504.977,148.417 Q504.396,148.7158 503.7568,148.8652 Q503.1177,149.0146 502.4121,149.0146 Q499.9053,149.0146 498.5854,147.3628 Q497.2656,145.7109 497.2656,142.5898 Q497.2656,139.4604 498.5854,137.8086 Q499.9053,136.1567 502.4121,136.1567 Q503.1177,136.1567 503.7651,136.3062 Q504.4126,136.4556 504.977,136.7544 L504.977,139.4771 Q504.3462,138.896 503.7527,138.6262 Q503.1592,138.3564 502.5283,138.3564 Q501.1836,138.3564 500.4988,139.4231 Q499.8139,140.4897 499.8139,142.5898 Q499.8139,144.6816 500.4988,145.7483 Q501.1836,146.8149 502.5283,146.8149 Q503.1592,146.8149 503.7527,146.5452 Q504.3462,146.2754 504.977,145.6943 Z " fill="#000000"/><text fill="#000000" font-family="Verdana" font-size="12" font-style="italic" lengthAdjust="spacing" textLength="113.4961" x="518.0039" y="138.5391">&#171;generic package&#187;</text><text fill="#000000" font-family="Verdana" font-size="14" lengthAdjust="spacing" textLength="80.8213" x="534.3413" y="155.1338">Writer_Port</text><line style="stroke:#000000;stroke-width:1;" x1="445.27" x2="676.7339" y1="163.0732" y2="163.0732"/><text fill="#000000" font-family="Verdana" font-size="14" lengthAdjust="spacing" textLength="51.3721" x="450.27" y="181.1484">generic</text><text fill="#000000" font-family="Verdana" font-size="14" lengthAdjust="spacing" textLength="221.4639" x="450.27" y="198.1631">with function Write(...) : Result</text><line style="stroke:#000000;stroke-width:1;" x1="445.27" x2="676.7339" y1="205.1025" y2="205.1025"/><text fill="#000000" font-family="Verdana" font-size="14" font-weight="bold" lengthAdjust="spacing" textLength="164.1924" x="450.27" y="223.1777">Output Port Contract</text><text fill="#000000" font-family="Verdana" font-size="14" lengthAdjust="spacing" textLength="192.1035" x="450.27" y="240.1924">Defines what infrastructure</text><text fill="#000000" font-family="Verdana" font-size="14" lengthAdjust="spacing" textLength="92.5928" x="450.27" y="257.207">must provide</text></g><!--class UC--><g class="entity" data-entity="UC" data-source-line="25" data-uid="ent0006" id="entity_UC"><rect fill="#FFFFFF" height="142.6719" rx="2.5" ry="2.5" style="stroke:#000000;stroke-width:1;" width="251.4385" x="431.28" y="455.3046"/><ellipse cx="498.5012" cy="476.1039" fill="#FFFFFF" rx="9" ry="9" style="stroke:#000000;stroke-width:1;"/><path d="M500.9743,482.247 Q500.3933,482.5458 499.7541,482.6952 Q499.115,482.8446 498.4094,482.8446 Q495.9026,482.8446 494.5827,481.1928 Q493.2629,479.5409 493.2629,476.4198 Q493.2629,473.2904 494.5827,471.6386 Q495.9026,469.9867 498.4094,469.9867 Q499.115,469.9867 499.7624,470.1362 Q500.4099,470.2856 500.9743,470.5844 L500.9743,473.3071 Q500.3435,472.726 499.75,472.4562 Q499.1565,472.1864 498.5256,472.1864 Q497.1809,472.1864 496.4961,473.2531 Q495.8113,474.3197 495.8113,476.4198 Q495.8113,478.5116 496.4961,479.5783 Q497.1809,480.6449 498.5256,480.6449 Q499.1565,480.6449 499.75,480.3752 Q500.3435,480.1054 500.9743,479.5243 Z " fill="#000000"/><text fill="#000000" font-family="Verdana" font-size="12" font-style="italic" lengthAdjust="spacing" textLength="113.4961" x="514.0012" y="472.3691">&#171;generic package&#187;</text><text fill="#000000" font-family="Verdana" font-size="14" lengthAdjust="spacing" textLength="68.5986" x="536.4499" y="488.9638">Use_Case</text><line style="stroke:#000000;stroke-width:1;" x1="432.28" x2="681.7185" y1="496.9032" y2="496.9032"/><text fill="#000000" font-family="Verdana" font-size="14" lengthAdjust="spacing" textLength="51.3721" x="449.28" y="514.9784">generic</text><text fill="#000000" font-family="Verdana" font-size="14" lengthAdjust="spacing" textLength="227.4385" x="449.28" y="531.9931">with function Writer(...) : Result</text><ellipse cx="442.28" cy="544.9399" fill="#FFFFFF" rx="3" ry="3" style="stroke:#000000;stroke-width:1;"/><text fill="#000000" font-family="Verdana" font-size="14" lengthAdjust="spacing" textLength="160.1045" x="449.28" y="549.0077">Execute(Cmd) : Result</text><line style="stroke:#000000;stroke-width:1;" x1="432.28" x2="681.7185" y1="555.9472" y2="555.9472"/><text fill="#000000" font-family="Verdana" font-size="14" font-weight="bold" lengthAdjust="spacing" textLength="116.9697" x="437.28" y="574.0224">Use Case Logic</text><text fill="#000000" font-family="Verdana" font-size="14" lengthAdjust="spacing" textLength="197.1211" x="437.28" y="591.037">Generic over writer function</text></g><!--class Ops--><g class="entity" data-entity="Ops" data-source-line="36" data-uid="ent0008" id="entity_Ops"><rect fill="#CCFFCC" height="159.6865" rx="2.5" ry="2.5" style="stroke:#000000;stroke-width:1;" width="251.4385" x="123.28" y="856.4846"/><ellipse cx="190.5012" cy="877.2839" fill="#FFFFFF" rx="9" ry="9" style="stroke:#000000;stroke-width:1;"/><path d="M192.9743,883.427 Q192.3933,883.7258 191.7541,883.8752 Q191.115,884.0246 190.4094,884.0246 Q187.9026,884.0246 186.5827,882.3728 Q185.2629,880.7209 185.2629,877.5998 Q185.2629,874.4704 186.5827,872.8186 Q187.9026,871.1667 190.4094,871.1667 Q191.115,871.1667 191.7624,871.3162 Q192.4099,871.4656 192.9743,871.7644 L192.9743,874.4871 Q192.3435,873.906 191.75,873.6362 Q191.1565,873.3664 190.5256,873.3664 Q189.1809,873.3664 188.4961,874.4331 Q187.8113,875.4997 187.8113,877.5998 Q187.8113,879.6916 188.4961,880.7583 Q189.1809,881.8249 190.5256,881.8249 Q191.1565,881.8249 191.75,881.5552 Q192.3435,881.2854 192.9743,880.7043 Z " fill="#000000"/><text fill="#000000" font-family="Verdana" font-size="12" font-style="italic" lengthAdjust="spacing" textLength="113.4961" x="206.0012" y="873.5491">&#171;generic package&#187;</text><text fill="#000000" font-family="Verdana" font-size="14" lengthAdjust="spacing" textLength="105.4717" x="210.0134" y="890.1438">API.Operations</text><line style="stroke:#000000;stroke-width:1;" x1="124.28" x2="373.7185" y1="898.0832" y2="898.0832"/><text fill="#000000" font-family="Verdana" font-size="14" lengthAdjust="spacing" textLength="51.3721" x="141.28" y="916.1584">generic</text><text fill="#000000" font-family="Verdana" font-size="14" lengthAdjust="spacing" textLength="227.4385" x="141.28" y="933.1731">with function Writer(...) : Result</text><ellipse cx="134.28" cy="946.1199" fill="#FFFFFF" rx="3" ry="3" style="stroke:#000000;stroke-width:1;"/><text fill="#000000" font-family="Verdana" font-size="14" lengthAdjust="spacing" textLength="143.6436" x="141.28" y="950.1877">Greet(Cmd) : Result</text><line style="stroke:#000000;stroke-width:1;" x1="124.28" x2="373.7185" y1="957.1272" y2="957.1272"/><text fill="#000000" font-family="Verdana" font-size="14" font-weight="bold" lengthAdjust="spacing" textLength="185.1855" x="129.28" y="975.2024">SPARK-Safe Operations</text><text fill="#000000" font-family="Verdana" font-size="14" lengthAdjust="spacing" textLength="135.5498" x="129.28" y="992.217">Generic over writer</text><text fill="#000000" font-family="Verdana" font-size="14" lengthAdjust="spacing" textLength="124.4346" x="129.28" y="1009.2317">SPARK_Mode: On</text></g><!--class Desktop--><g class="entity" data-entity="Desktop" data-source-line="46" data-uid="ent0009" id="entity_Desktop"><rect fill="#FFFFFF" height="142.6719" rx="2.5" ry="2.5" style="stroke:#000000;stroke-width:1;" width="177.1426" x="197.43" y="455.3046"/><ellipse cx="226.9104" cy="476.1039" fill="#FFFFFF" rx="9" ry="9" style="stroke:#000000;stroke-width:1;"/><path d="M229.3835,482.247 Q228.8025,482.5458 228.1633,482.6952 Q227.5241,482.8446 226.8186,482.8446 Q224.3117,482.8446 222.9919,481.1928 Q221.6721,479.5409 221.6721,476.4198 Q221.6721,473.2904 222.9919,471.6386 Q224.3117,469.9867 226.8186,469.9867 Q227.5241,469.9867 228.1716,470.1362 Q228.8191,470.2856 229.3835,470.5844 L229.3835,473.3071 Q228.7527,472.726 228.1592,472.4562 Q227.5656,472.1864 226.9348,472.1864 Q225.5901,472.1864 224.9052,473.2531 Q224.2204,474.3197 224.2204,476.4198 Q224.2204,478.5116 224.9052,479.5783 Q225.5901,480.6449 226.9348,480.6449 Q227.5656,480.6449 228.1592,480.3752 Q228.7527,480.1054 229.3835,479.5243 Z " fill="#000000"/><text fill="#000000" font-family="Verdana" font-size="12" font-style="italic" lengthAdjust="spacing" textLength="116.5195" x="240.5727" y="472.3691">&#171;composition root&#187;</text><text fill="#000000" font-family="Verdana" font-size="14" lengthAdjust="spacing" textLength="86.4404" x="255.6122" y="488.9638">API.Desktop</text><line style="stroke:#000000;stroke-width:1;" x1="198.43" x2="373.5726" y1="496.9032" y2="496.9032"/><text fill="#000000" font-family="Verdana" font-size="14" lengthAdjust="spacing" textLength="91.041" x="215.43" y="514.9784">Console_Ops</text><ellipse cx="208.43" cy="527.9252" fill="#FFFFFF" rx="3" ry="3" style="stroke:#000000;stroke-width:1;"/><text fill="#000000" font-family="Verdana" font-size="14" lengthAdjust="spacing" textLength="143.6436" x="215.43" y="531.9931">Greet(Cmd) : Result</text><line style="stroke:#000000;stroke-width:1;" x1="198.43" x2="373.5726" y1="538.9325" y2="538.9325"/><text fill="#000000" font-family="Verdana" font-size="14" font-weight="bold" lengthAdjust="spacing" textLength="139.1318" x="203.43" y="557.0077">Composition Root</text><text fill="#000000" font-family="Verdana" font-size="14" lengthAdjust="spacing" textLength="165.1426" x="203.43" y="574.0224">Instantiates Operations</text><text fill="#000000" font-family="Verdana" font-size="14" lengthAdjust="spacing" textLength="142.0918" x="203.43" y="591.037">with Console_Writer</text></g><!--class Facade--><g class="entity" data-entity="Facade" data-source-line="55" data-uid="ent0010" id="entity_Facade"><rect fill="#FFFFFF" height="108.6426" rx="2.5" ry="2.5" style="stroke:#000000;stroke-width:1;" width="167.6436" x="202.18" y="138.4946"/><ellipse cx="243.0487" cy="159.2939" fill="#FFFFFF" rx="9" ry="9" style="stroke:#000000;stroke-width:1;"/><path d="M245.5218,165.437 Q244.9407,165.7358 244.3016,165.8852 Q243.6624,166.0346 242.9569,166.0346 Q240.45,166.0346 239.1302,164.3828 Q237.8104,162.7309 237.8104,159.6098 Q237.8104,156.4804 239.1302,154.8286 Q240.45,153.1767 242.9569,153.1767 Q243.6624,153.1767 244.3099,153.3262 Q244.9573,153.4756 245.5218,153.7744 L245.5218,156.4971 Q244.8909,155.916 244.2974,155.6462 Q243.7039,155.3764 243.0731,155.3764 Q241.7283,155.3764 241.0435,156.4431 Q240.3587,157.5097 240.3587,159.6098 Q240.3587,161.7016 241.0435,162.7683 Q241.7283,163.8349 243.0731,163.8349 Q243.7039,163.8349 244.2974,163.5652 Q244.8909,163.2954 245.5218,162.7143 Z " fill="#000000"/><text fill="#000000" font-family="Verdana" font-size="12" font-style="italic" lengthAdjust="spacing" textLength="82.4063" x="258.5487" y="155.5591">&#171;thin facade&#187;</text><text fill="#000000" font-family="Verdana" font-size="14" lengthAdjust="spacing" textLength="23.9053" x="287.7991" y="172.1538">API</text><line style="stroke:#000000;stroke-width:1;" x1="203.18" x2="368.8236" y1="180.0932" y2="180.0932"/><ellipse cx="213.18" cy="194.1006" fill="#FFFFFF" rx="3" ry="3" style="stroke:#000000;stroke-width:1;"/><text fill="#000000" font-family="Verdana" font-size="14" lengthAdjust="spacing" textLength="143.6436" x="220.18" y="198.1684">Greet(Cmd) : Result</text><line style="stroke:#000000;stroke-width:1;" x1="203.18" x2="368.8236" y1="205.1079" y2="205.1079"/><text fill="#000000" font-family="Verdana" font-size="14" font-weight="bold" lengthAdjust="spacing" textLength="107.748" x="208.18" y="223.1831">Public Facade</text><text fill="#000000" font-family="Verdana" font-size="14" lengthAdjust="spacing" textLength="150.8896" x="208.18" y="240.1977">Delegates to Desktop</text></g><g class="entity" data-entity="GMN17" data-source-line="72" data-uid="ent0018" id="entity_GMN17"><path d="M718,324.1546 L718,729.1375 L1194,729.1375 L1194,334.1546 L1184,324.1546 L718,324.1546" fill="#CCFFCC" style="stroke:#000000;stroke-width:1;"/><path d="M1184,324.1546 L1184,334.1546 L1194,334.1546 L1184,324.1546" fill="#CCFFCC" style="stroke:#000000;stroke-width:1;"/><text fill="#000000" font-family="Verdana" font-size="13" font-weight="bold" lengthAdjust="spacing" textLength="191.1914" x="724" y="342.2244">API.Desktop Instantiation</text><text fill="#000000" font-family="Verdana" font-size="13" lengthAdjust="spacing" textLength="455" x="724" y="358.0238">&#9552;&#9552;&#9552;&#9552;&#9552;&#9552;&#9552;&#9552;&#9552;&#9552;&#9552;&#9552;&#9552;&#9552;&#9552;&#9552;&#9552;&#9552;&#9552;&#9552;&#9552;&#9552;&#9552;&#9552;&#9552;&#9552;&#9552;&#9552;&#9552;&#9552;&#9552;&#9552;&#9552;&#9552;&#9552;</text><text fill="#000000" font-family="Verdana" font-size="13" lengthAdjust="spacing" textLength="4.5703" x="724" y="373.8231">&#160;</text><text fill="#000000" font-family="Verdana" font-size="13" lengthAdjust="spacing" textLength="48.5088" x="724" y="389.6224">```ada</text><text fill="#000000" font-family="Verdana" font-size="13" lengthAdjust="spacing" textLength="206.1592" x="724" y="405.4217">--  Located in: src/api/desktop/</text><text fill="#000000" font-family="Verdana" font-size="13" lengthAdjust="spacing" textLength="227.7729" x="724" y="421.221">--  tzif-api-desktop.ads</text><text fill="#000000" font-family="Verdana" font-size="13" lengthAdjust="spacing" textLength="4.5703" x="724" y="437.0203">&#160;</text><text fill="#000000" font-family="Verdana" font-size="13" lengthAdjust="spacing" textLength="289.3198" x="724" y="452.8196">with Infrastructure.Adapter.Console_Writer;</text><text fill="#000000" font-family="Verdana" font-size="13" lengthAdjust="spacing" textLength="243.6992" x="724" y="468.619">with Tzif.API.Operations;</text><text fill="#000000" font-family="Verdana" font-size="13" lengthAdjust="spacing" textLength="4.5703" x="724" y="484.4183">&#160;</text><text fill="#000000" font-family="Verdana" font-size="13" lengthAdjust="spacing" textLength="261.5044" x="724" y="500.2176">package Tzif.API.Desktop is</text><text fill="#000000" font-family="Verdana" font-size="13" lengthAdjust="spacing" textLength="4.5703" x="724" y="516.0169">&#160;</text><text fill="#000000" font-family="Verdana" font-size="13" lengthAdjust="spacing" textLength="199.6465" x="737.7109" y="531.8162">--  Instantiate Operations with</text><text fill="#000000" font-family="Verdana" font-size="13" lengthAdjust="spacing" textLength="181.1558" x="737.7109" y="547.6155">--  concrete Console_Writer</text><text fill="#000000" font-family="Verdana" font-size="13" lengthAdjust="spacing" textLength="189.2236" x="737.7109" y="563.4149">package Console_Ops is new</text><text fill="#000000" font-family="Verdana" font-size="13" lengthAdjust="spacing" textLength="205.6704" x="746.8516" y="579.2142">Tzif.API.Operations</text><text fill="#000000" font-family="Verdana" font-size="13" lengthAdjust="spacing" textLength="227.8936" x="755.9922" y="595.0135">(Writer =&gt; Console_Writer.Write);</text><text fill="#000000" font-family="Verdana" font-size="13" lengthAdjust="spacing" textLength="4.5703" x="724" y="610.8128">&#160;</text><text fill="#000000" font-family="Verdana" font-size="13" lengthAdjust="spacing" textLength="183.7139" x="737.7109" y="626.6121">--  Re-export Greet function</text><text fill="#000000" font-family="Verdana" font-size="13" lengthAdjust="spacing" textLength="265.5479" x="737.7109" y="642.4114">function Greet (Cmd : Greet_Command)</text><text fill="#000000" font-family="Verdana" font-size="13" lengthAdjust="spacing" textLength="165.3564" x="746.8516" y="658.2108">return Unit_Result.Result</text><text fill="#000000" font-family="Verdana" font-size="13" lengthAdjust="spacing" textLength="192.4673" x="737.7109" y="674.0101">renames Console_Ops.Greet;</text><text fill="#000000" font-family="Verdana" font-size="13" lengthAdjust="spacing" textLength="4.5703" x="724" y="689.8094">&#160;</text><text fill="#000000" font-family="Verdana" font-size="13" lengthAdjust="spacing" textLength="222.5425" x="724" y="705.6087">end Tzif.API.Desktop;</text><text fill="#000000" font-family="Verdana" font-size="13" lengthAdjust="spacing" textLength="24.7939" x="724" y="721.408">```</text></g><g class="entity" data-entity="GMN20" data-source-line="100" data-uid="ent0021" id="entity_GMN20"><path d="M410,789.1346 L410,1083.5223 A0,0 0 0 0 410,1083.5223 L886,1083.5223 A0,0 0 0 0 886,1083.5223 L886,799.1346 L876,789.1346 L561,789.1346 L557,598.4746 L553,789.1346 L410,789.1346 A0,0 0 0 0 410,789.1346" fill="#FFFFFF" style="stroke:#000000;stroke-width:1;"/><path d="M876,789.1346 L876,799.1346 L886,799.1346 L876,789.1346" fill="#FFFFFF" style="stroke:#000000;stroke-width:1;"/><text fill="#000000" font-family="Verdana" font-size="13" font-weight="bold" lengthAdjust="spacing" textLength="125.8486" x="416" y="807.2044">Generic Use Case</text><text fill="#000000" font-family="Verdana" font-size="13" lengthAdjust="spacing" textLength="455" x="416" y="823.0038">&#9552;&#9552;&#9552;&#9552;&#9552;&#9552;&#9552;&#9552;&#9552;&#9552;&#9552;&#9552;&#9552;&#9552;&#9552;&#9552;&#9552;&#9552;&#9552;&#9552;&#9552;&#9552;&#9552;&#9552;&#9552;&#9552;&#9552;&#9552;&#9552;&#9552;&#9552;&#9552;&#9552;&#9552;&#9552;</text><text fill="#000000" font-family="Verdana" font-size="13" lengthAdjust="spacing" textLength="4.5703" x="416" y="838.8031">&#160;</text><text fill="#000000" font-family="Verdana" font-size="13" lengthAdjust="spacing" textLength="48.5088" x="416" y="854.6024">```ada</text><text fill="#000000" font-family="Verdana" font-size="13" lengthAdjust="spacing" textLength="47.7026" x="416" y="870.4017">generic</text><text fill="#000000" font-family="Verdana" font-size="13" lengthAdjust="spacing" textLength="256.4517" x="429.7109" y="886.201">with function Writer (Message : String)</text><text fill="#000000" font-family="Verdana" font-size="13" lengthAdjust="spacing" textLength="171.2598" x="438.8516" y="902.0003">return Unit_Result.Result;</text><text fill="#000000" font-family="Verdana" font-size="13" lengthAdjust="spacing" textLength="243.9404" x="416" y="917.7996">package Application.Usecase.Greet is</text><text fill="#000000" font-family="Verdana" font-size="13" lengthAdjust="spacing" textLength="4.5703" x="416" y="933.599">&#160;</text><text fill="#000000" font-family="Verdana" font-size="13" lengthAdjust="spacing" textLength="108.6973" x="429.7109" y="949.3983">function Execute</text><text fill="#000000" font-family="Verdana" font-size="13" lengthAdjust="spacing" textLength="283.188" x="438.8516" y="965.1976">(Cmd : Greet_Command.Greet_Command)</text><text fill="#000000" font-family="Verdana" font-size="13" lengthAdjust="spacing" textLength="171.2598" x="443.4219" y="980.9969">return Unit_Result.Result;</text><text fill="#000000" font-family="Verdana" font-size="13" lengthAdjust="spacing" textLength="4.5703" x="416" y="996.7962">&#160;</text><text fill="#000000" font-family="Verdana" font-size="13" lengthAdjust="spacing" textLength="204.9785" x="416" y="1012.5955">end Application.Usecase.Greet;</text><text fill="#000000" font-family="Verdana" font-size="13" lengthAdjust="spacing" textLength="24.7939" x="416" y="1028.3949">```</text><text fill="#000000" font-family="Verdana" font-size="13" lengthAdjust="spacing" textLength="4.5703" x="416" y="1044.1942">&#160;</text><text fill="#000000" font-family="Verdana" font-size="13" font-weight="bold" lengthAdjust="spacing" textLength="32.3477" x="416" y="1059.9935">Key:</text><text fill="#000000" font-family="Verdana" font-size="13" lengthAdjust="spacing" textLength="173.894" x="452.918" y="1059.9935">`with function` parameter</text><text fill="#000000" font-family="Verdana" font-size="13" lengthAdjust="spacing" textLength="255.4297" x="416" y="1075.7928">binds concrete function at instantiation</text></g><g class="entity" data-entity="GMN23" data-source-line="121" data-uid="ent0024" id="entity_GMN23"><path d="M11,1143.5246 L11,1532.7082 A0,0 0 0 0 11,1532.7082 L487,1532.7082 A0,0 0 0 0 487,1532.7082 L487,1153.5246 L477,1143.5246 L253,1143.5246 L249,1016.6646 L245,1143.5246 L11,1143.5246 A0,0 0 0 0 11,1143.5246" fill="#CCFFCC" style="stroke:#000000;stroke-width:1;"/><path d="M477,1143.5246 L477,1153.5246 L487,1153.5246 L477,1143.5246" fill="#CCFFCC" style="stroke:#000000;stroke-width:1;"/><text fill="#000000" font-family="Verdana" font-size="13" font-weight="bold" lengthAdjust="spacing" textLength="277.5703" x="17" y="1161.5944">Generic API.Operations (SPARK-Safe)</text><text fill="#000000" font-family="Verdana" font-size="13" lengthAdjust="spacing" textLength="455" x="17" y="1177.3938">&#9552;&#9552;&#9552;&#9552;&#9552;&#9552;&#9552;&#9552;&#9552;&#9552;&#9552;&#9552;&#9552;&#9552;&#9552;&#9552;&#9552;&#9552;&#9552;&#9552;&#9552;&#9552;&#9552;&#9552;&#9552;&#9552;&#9552;&#9552;&#9552;&#9552;&#9552;&#9552;&#9552;&#9552;&#9552;</text><text fill="#000000" font-family="Verdana" font-size="13" lengthAdjust="spacing" textLength="4.5703" x="17" y="1193.1931">&#160;</text><text fill="#000000" font-family="Verdana" font-size="13" lengthAdjust="spacing" textLength="48.5088" x="17" y="1208.9924">```ada</text><text fill="#000000" font-family="Verdana" font-size="13" lengthAdjust="spacing" textLength="181.9302" x="17" y="1224.7917">pragma SPARK_Mode (On);</text><text fill="#000000" font-family="Verdana" font-size="13" lengthAdjust="spacing" textLength="4.5703" x="17" y="1240.591">&#160;</text><text fill="#000000" font-family="Verdana" font-size="13" lengthAdjust="spacing" textLength="47.7026" x="17" y="1256.3903">generic</text><text fill="#000000" font-family="Verdana" font-size="13" lengthAdjust="spacing" textLength="256.4517" x="30.7109" y="1272.1896">with function Writer (Message : String)</text><text fill="#000000" font-family="Verdana" font-size="13" lengthAdjust="spacing" textLength="171.2598" x="39.8516" y="1287.989">return Unit_Result.Result;</text><text fill="#000000" font-family="Verdana" font-size="13" lengthAdjust="spacing" textLength="279.1763" x="17" y="1303.7883">package Tzif.API.Operations is</text><text fill="#000000" font-family="Verdana" font-size="13" lengthAdjust="spacing" textLength="4.5703" x="17" y="1319.5876">&#160;</text><text fill="#000000" font-family="Verdana" font-size="13" lengthAdjust="spacing" textLength="212.8877" x="30.7109" y="1335.3869">package Greet_Use_Case is new</text><text fill="#000000" font-family="Verdana" font-size="13" lengthAdjust="spacing" textLength="170.4346" x="39.8516" y="1351.1862">Application.Usecase.Greet</text><text fill="#000000" font-family="Verdana" font-size="13" lengthAdjust="spacing" textLength="128.8955" x="48.9922" y="1366.9855">(Writer =&gt; Writer);</text><text fill="#000000" font-family="Verdana" font-size="13" lengthAdjust="spacing" textLength="4.5703" x="17" y="1382.7849">&#160;</text><text fill="#000000" font-family="Verdana" font-size="13" lengthAdjust="spacing" textLength="93.4121" x="30.7109" y="1398.5842">function Greet</text><text fill="#000000" font-family="Verdana" font-size="13" lengthAdjust="spacing" textLength="167.5654" x="39.8516" y="1414.3835">(Cmd : Greet_Command)</text><text fill="#000000" font-family="Verdana" font-size="13" lengthAdjust="spacing" textLength="165.3564" x="44.4219" y="1430.1828">return Unit_Result.Result</text><text fill="#000000" font-family="Verdana" font-size="13" lengthAdjust="spacing" textLength="231.4165" x="30.7109" y="1445.9821">renames Greet_Use_Case.Execute;</text><text fill="#000000" font-family="Verdana" font-size="13" lengthAdjust="spacing" textLength="4.5703" x="17" y="1461.7814">&#160;</text><text fill="#000000" font-family="Verdana" font-size="13" lengthAdjust="spacing" textLength="240.2144" x="17" y="1477.5808">end Tzif.API.Operations;</text><text fill="#000000" font-family="Verdana" font-size="13" lengthAdjust="spacing" textLength="24.7939" x="17" y="1493.3801">```</text><text fill="#000000" font-family="Verdana" font-size="13" lengthAdjust="spacing" textLength="4.5703" x="17" y="1509.1794">&#160;</text><text fill="#000000" font-family="Verdana" font-size="13" font-weight="bold" lengthAdjust="spacing" textLength="32.3477" x="17" y="1524.9787">Key:</text><text fill="#000000" font-family="Verdana" font-size="13" lengthAdjust="spacing" textLength="265.4526" x="53.918" y="1524.9787">SPARK-verifiable, no Infrastructure deps</text></g><!--link CW to Port--><g class="link" data-entity-1="CW" data-entity-2="Port" data-source-line="64" data-uid="lnk11" id="link_CW_Port"><path codeLine="64" d="M1233.73,881.6446 C1233.73,709.9146 1233.73,192.7046 1233.73,192.7046 C1233.73,192.7046 876.92,192.7046 684.18,192.7046" fill="none" id="CW-to-Port" style="stroke:#000000;stroke-width:1;stroke-dasharray:7,7;"/><polygon fill="#000000" points="678.18,192.7046,687.18,196.7046,683.18,192.7046,687.18,188.7046,678.18,192.7046" style="stroke:#000000;stroke-width:1;"/><text fill="#000000" font-family="Verdana" font-size="13" lengthAdjust="spacing" textLength="76.1338" x="1156.73" y="256.4744">implements</text></g><!--link Port to UC--><g class="link" data-entity-1="Port" data-entity-2="UC" data-source-line="65" data-uid="lnk12" id="link_Port_UC"><path codeLine="65" d="M561,264.4246 C561,320.6546 561,392.5846 561,448.8546" fill="none" id="Port-to-UC" style="stroke:#000000;stroke-width:1;stroke-dasharray:7,7;"/><polygon fill="#000000" points="561,454.8546,565,445.8546,561,449.8546,557,445.8546,561,454.8546" style="stroke:#000000;stroke-width:1;"/><text fill="#000000" font-family="Verdana" font-size="13" lengthAdjust="spacing" textLength="112.5884" x="448" y="356.7144">provides function</text></g><!--link UC to Ops--><g class="link" data-entity-1="UC" data-entity-2="Ops" data-source-line="66" data-uid="lnk13" id="link_UC_Ops"><path codeLine="66" d="M430.96,526.7046 C408.64,526.7046 392.36,526.7046 392.36,526.7046 C392.36,526.7046 392.36,936.7046 392.36,936.7046 C392.36,936.7046 391.62,936.7046 381.07,936.7046" fill="none" id="UC-to-Ops" style="stroke:#000000;stroke-width:1;stroke-dasharray:7,7;"/><polygon fill="#000000" points="375.07,936.7046,384.07,940.7046,380.07,936.7046,384.07,932.7046,375.07,936.7046" style="stroke:#000000;stroke-width:1;"/><text fill="#000000" font-family="Verdana" font-size="13" lengthAdjust="spacing" textLength="112.5884" x="279.36" y="718.1244">provides function</text></g><!--link Desktop to CW--><g class="link" data-entity-1="Desktop" data-entity-2="CW" data-source-line="67" data-uid="lnk14" id="link_Desktop_CW"><path codeLine="67" d="M315.52,598.1646 C315.52,666.3446 315.52,758.7046 315.52,758.7046 C315.52,758.7046 1107.27,758.7046 1107.27,758.7046 C1107.27,758.7046 1107.27,823.3946 1107.27,875.5846" fill="none" id="Desktop-to-CW" style="stroke:#000000;stroke-width:1;"/><polygon fill="#000000" points="1107.27,881.5846,1111.27,872.5846,1107.27,876.5846,1103.27,872.5846,1107.27,881.5846" style="stroke:#000000;stroke-width:1;"/><text fill="#000000" font-family="Verdana" font-size="13" lengthAdjust="spacing" textLength="34.271" x="657.57" y="755.7744">wires</text></g><!--link Desktop to Ops--><g class="link" data-entity-1="Desktop" data-entity-2="Ops" data-source-line="68" data-uid="lnk15" id="link_Desktop_Ops"><path codeLine="68" d="M256.48,598.4746 C256.48,670.5346 256.48,775.2746 256.48,850.1546" fill="none" id="Desktop-to-Ops" style="stroke:#000000;stroke-width:1;"/><polygon fill="#000000" points="256.48,856.1546,260.48,847.1546,256.48,851.1546,252.48,847.1546,256.48,856.1546" style="stroke:#000000;stroke-width:1;"/><text fill="#000000" font-family="Verdana" font-size="13" lengthAdjust="spacing" textLength="75.8608" x="180.48" y="724.3844">instantiates</text></g><!--link Facade to Desktop--><g class="link" data-entity-1="Facade" data-entity-2="Desktop" data-source-line="69" data-uid="lnk16" id="link_Facade_Desktop"><path codeLine="69" d="M313.94,247.5646 C313.94,304.1646 313.94,386.7946 313.94,448.9546" fill="none" id="Facade-to-Desktop" style="stroke:#000000;stroke-width:1;"/><polygon fill="#000000" points="313.94,454.9546,317.94,445.9546,313.94,449.9546,309.94,445.9546,313.94,454.9546" style="stroke:#000000;stroke-width:1;"/><text fill="#000000" font-family="Verdana" font-size="13" lengthAdjust="spacing" textLength="62.7021" x="250.94" y="348.3244">delegates</text></g><!--link Desktop to GMN17--><g class="link" data-entity-1="Desktop" data-entity-2="GMN17" data-source-line="72" data-uid="lnk19" id="link_Desktop_GMN17"><path d="M258.06,454.9646 C258.06,421.8346 258.06,389.7046 258.06,389.7046 C258.06,389.7046 515.57,389.7046 717.76,389.7046" fill="none" id="Desktop-GMN17" style="stroke:#000000;stroke-width:1;stroke-dasharray:7,7;"/></g><g class="legend" data-source-line="147"><rect fill="none" height="554.4688" rx="7.5" ry="7.5" style="stroke:#000000;stroke-width:1;" width="556" x="721" y="1543.7082"/><text fill="#000000" font-family="Verdana" font-size="14" font-weight="bold" lengthAdjust="spacing" textLength="187.7012" x="726" y="1562.7834">Static Dispatch Benefits</text><text fill="#000000" font-family="Verdana" font-size="14" lengthAdjust="spacing" textLength="546" x="726" y="1579.798">&#9552;&#9552;&#9552;&#9552;&#9552;&#9552;&#9552;&#9552;&#9552;&#9552;&#9552;&#9552;&#9552;&#9552;&#9552;&#9552;&#9552;&#9552;&#9552;&#9552;&#9552;&#9552;&#9552;&#9552;&#9552;&#9552;&#9552;&#9552;&#9552;&#9552;&#9552;&#9552;&#9552;&#9552;&#9552;&#9552;&#9552;&#9552;&#9552;</text><text fill="#000000" font-family="Verdana" font-size="14" lengthAdjust="spacing" textLength="4.9219" x="726" y="1596.8127">&#160;</text><text fill="#000000" font-family="Verdana" font-size="14" font-weight="bold" lengthAdjust="spacing" textLength="106.3057" x="726" y="1613.8273">Performance:</text><text fill="#000000" font-family="Verdana" font-size="14" lengthAdjust="spacing" textLength="175.2393" x="726" y="1630.842">&#8226; Zero runtime overhead</text><text fill="#000000" font-family="Verdana" font-size="14" lengthAdjust="spacing" textLength="243.79" x="726" y="1647.8566">&#8226; All calls resolved at compile time</text><text fill="#000000" font-family="Verdana" font-size="14" lengthAdjust="spacing" textLength="237.9248" x="726" y="1664.8713">&#8226; Subprogram calls can be inlined</text><text fill="#000000" font-family="Verdana" font-size="14" lengthAdjust="spacing" textLength="205.6729" x="726" y="1681.8859">&#8226; No tagged type dispatching</text><text fill="#000000" font-family="Verdana" font-size="14" lengthAdjust="spacing" textLength="4.9219" x="726" y="1698.9006">&#160;</text><text fill="#000000" font-family="Verdana" font-size="14" font-weight="bold" lengthAdjust="spacing" textLength="98.1572" x="726" y="1715.9152">Type Safety:</text><text fill="#000000" font-family="Verdana" font-size="14" lengthAdjust="spacing" textLength="200.3135" x="726" y="1732.9299">&#8226; Full compile-time checking</text><text fill="#000000" font-family="Verdana" font-size="14" lengthAdjust="spacing" textLength="241.1992" x="726" y="1749.9445">&#8226; Instantiation errors caught early</text><text fill="#000000" font-family="Verdana" font-size="14" lengthAdjust="spacing" textLength="216.248" x="726" y="1766.9592">&#8226; No runtime type mismatches</text><text fill="#000000" font-family="Verdana" font-size="14" lengthAdjust="spacing" textLength="4.9219" x="726" y="1783.9738">&#160;</text><text fill="#000000" font-family="Verdana" font-size="14" font-weight="bold" lengthAdjust="spacing" textLength="167.7334" x="726" y="1800.9885">SPARK Compatibility:</text><text fill="#000000" font-family="Verdana" font-size="14" lengthAdjust="spacing" textLength="176.4629" x="726" y="1818.0031">&#8226; No runtime dispatching</text><text fill="#000000" font-family="Verdana" font-size="14" lengthAdjust="spacing" textLength="192.6641" x="726" y="1835.0178">&#8226; Deterministic control flow</text><text fill="#000000" font-family="Verdana" font-size="14" lengthAdjust="spacing" textLength="142.5088" x="726" y="1852.0324">&#8226; Formally verifiable</text><text fill="#000000" font-family="Verdana" font-size="14" lengthAdjust="spacing" textLength="4.9219" x="726" y="1869.0471">&#160;</text><text fill="#000000" font-family="Verdana" font-size="14" font-weight="bold" lengthAdjust="spacing" textLength="158.0811" x="726" y="1886.0617">Ada Generic Pattern</text><text fill="#000000" font-family="Verdana" font-size="14" lengthAdjust="spacing" textLength="546" x="726" y="1903.0764">&#9552;&#9552;&#9552;&#9552;&#9552;&#9552;&#9552;&#9552;&#9552;&#9552;&#9552;&#9552;&#9552;&#9552;&#9552;&#9552;&#9552;&#9552;&#9552;&#9552;&#9552;&#9552;&#9552;&#9552;&#9552;&#9552;&#9552;&#9552;&#9552;&#9552;&#9552;&#9552;&#9552;&#9552;&#9552;&#9552;&#9552;&#9552;&#9552;</text><text fill="#000000" font-family="Verdana" font-size="14" lengthAdjust="spacing" textLength="295.5518" x="726" y="1920.091">&#8226; `generic` introduces formal parameters</text><text fill="#000000" font-family="Verdana" font-size="14" lengthAdjust="spacing" textLength="290.8896" x="726" y="1937.1057">&#8226; `with function` is a formal subprogram</text><text fill="#000000" font-family="Verdana" font-size="14" lengthAdjust="spacing" textLength="278.1338" x="726" y="1954.1203">&#8226; Instantiation binds concrete functions</text><text fill="#000000" font-family="Verdana" font-size="14" lengthAdjust="spacing" textLength="268.584" x="726" y="1971.135">&#8226; Compiler generates specialized code</text><text fill="#000000" font-family="Verdana" font-size="14" lengthAdjust="spacing" textLength="4.9219" x="726" y="1988.1496">&#160;</text><text fill="#000000" font-family="Verdana" font-size="14" font-weight="bold" lengthAdjust="spacing" textLength="158.0059" x="726" y="2005.1643">Library Architecture</text><text fill="#000000" font-family="Verdana" font-size="14" lengthAdjust="spacing" textLength="546" x="726" y="2022.1789">&#9552;&#9552;&#9552;&#9552;&#9552;&#9552;&#9552;&#9552;&#9552;&#9552;&#9552;&#9552;&#9552;&#9552;&#9552;&#9552;&#9552;&#9552;&#9552;&#9552;&#9552;&#9552;&#9552;&#9552;&#9552;&#9552;&#9552;&#9552;&#9552;&#9552;&#9552;&#9552;&#9552;&#9552;&#9552;&#9552;&#9552;&#9552;&#9552;</text><text fill="#000000" font-family="Verdana" font-size="14" lengthAdjust="spacing" textLength="280.6563" x="726" y="2039.1936">&#8226; API.Operations: SPARK-safe (generic)</text><text fill="#000000" font-family="Verdana" font-size="14" lengthAdjust="spacing" textLength="285.1885" x="726" y="2056.2082">&#8226; API.Desktop: Composition root (wires)</text><text fill="#000000" font-family="Verdana" font-size="14" lengthAdjust="spacing" textLength="214.1084" x="726" y="2073.2229">&#8226; API: Thin facade (delegates)</text><text fill="#000000" font-family="Verdana" font-size="14" lengthAdjust="spacing" textLength="264.0381" x="726" y="2090.2375">&#8226; Consumer: Imports API, calls Greet</text></g><!--SRC=[nLXHRXit4FtVKqoJZyfEjFaeMhHoQi2HhTH8KXjsZ0150OdYZYJMk-I2vDfHYm0zGdzwWHwj9-cGN6efMLO218qD0vQMiyCtCsyUX_xABh12g4icP6QkXQoPPXMKGg9TrWXAsuNACYjiYN1fcHKSZeMfcUKBk14CNg94BRZvLHvZZR90oPTmAdz3ReMI82GS5GnwhyLKCxtSoxAQyMisHtXqAcUQ6QiRRXkDy9ejKJ-2noVVZRuPZU2F382Np1XuD5JIg1B7xxImpeGP6Bw3vyzRJuU7tXZWYJVelK5Zt0O3mgk5dE_HfmiqJMczLR_l_v1Jhj4YYAekAGNInQQaNrCpK8sj6mirnK-FFcGV4k17TLqAxiqxrD-FlZtv8KKTq8xFoOE7x3uGw7d85so2Rv_xpm2tmYvWriYGn11NdkVRGzdVFmje_HOKcDMCs_rzltYCCwgbWTi5irIDDEL-lMeCXQdLZIZGHzf5S6LmF6G6FVohuUU0rrlGFpbvZxoXm8PLSLzW104S17YjveAt8RMK0tM36cwz-zLsTujrVhegqcXqyc9ud1Q9LlEp6hKlfl61djLcQwIFXyFHQ3Zyh8XVQaIxAzxBywEBL_rBDaFeODqVjd_ktnc_KGKEu4nkrD05U8pcsghQHzT-fWYvgcfbX4UibRAhOiPseqHy8kfXukg2NBM0JwMnJ5h1B9ead6oLiVN6lelS8nunpWeam7P1OZBptxgM_oYsysPApTfwMVL4YNEFoggOaKYShybB6O0k16M0b2RF3qDh3JgnC9b_ufQeCmQnWqn7H7hiLXsTjYt7GlGBTIlxXqxH1fGLZUREKd0XacncRLAYHNnZ04KCBSka8dNJOhwmJj2YIKlZpEKc8KTIB4Bdy_JlttzzcLzNzCbamWgMkS81DJkfAnOKyW2CvizOBPuL0UUprcInd6fHZ4in7TDxVRBejnOvAuppw1csViRaT1JLnBHydNW7qVgdu9JEgZ5PvklYSE2SHbdPOXaJAVpk460cBP1qWD-jC-BnABhJ3z3jc7GbRG4IRrljsOqw6W7qWbVuyN1Zdzp_sJj8O5zW7z-ximzyVwNgIZyheGkBhlk8UVxBcAIWOhBOY_jIN8sMS2M57OVsp9CkfMN9AcgB9BhSE_9eQ9pOaUc3G9lCMJckjuoVAcjLvIX_5LWUTJEU9Gz8xhLJOzkX0NUdbuzcyY3XPJAQv1Glft13FZjQhdPiZz_eVriPy-r5tOMbBTkzG6BLV6bUuNAmlm-JjLHCmC-W65fWAcHXkXPPeVVJJ29PzzF0TKogUf4Fwuq2lUxitNj0YjIQpIkM7EhGEvEXEVztzknKaev1qJoG8qw96wfqBm6sAbBujDAWTONPnT1FuEIwqgo3pjics2KtwH5mbxk1DJIIYPbWqnAV4WatZXqwb6cGwFX99xJxuezcxshpNlM22ZqJrdnP6cvIacOdr3EbASqS1m7Bd__0BwWLw8RwZkwDRXPT82lQjQEo1CxAqb2wISzlw0odFdMJfg3hetkZDRnifZGIpTrLCzXp9c5A79BkvXdT_Qp0ilcSlFYxQD7cXtWTyBrrJrt3scM7RzGu467BlWV95yYltKl1O6tI0THQQRT_umObPBfSThl7CFtsbJ2LsnvDsDrN7jpiIvwceXGfYkJb57POF7RQLWafZ2ixTnSsLSAiLBSn1fVribn2nwkmfxjBH_qwPvRSo0SaIG0xQNLfGjMZG8g6kpdNHz0fkOd66r9Fei6YiLcHOckbxZa9ekTXABaECkcdUrCZ5wmKlnE3E4bfo67xhmWuqbGJYxv57po9wq8pQ6N5k8jWhytlNcBQZa0366xSug3dxn29xG3UTXSdwAqk27khl4dJLAW7S5gvaS-ubvwsRHdqbzGgQ5Rs7m00]--></g></svg>